# xmcd
#
# Track frame offsets:
# 150
# 24900
# 85695
# 129470
# 172055
# 193565
# 221415
# 275437
# 317907
#
# Disc length: 4572 seconds
#
# Revision: 0
# Processed by: cddbd v1.4PL0 Copyright (c) Steve Scherf et al.
# Submitted via: MacMP3 Pro 5.0 (http://mp3.act2.co.jp/)
#
DISCID=7711da09
DTITLE=piano adagios - adagios for your heart
DYEAR=1900
DGENRE=
TTITLE0=01..
TTITLE1=02..
TTITLE2=03..
TTITLE3=04..
TTITLE4=05..
TTITLE5=06..
TTITLE6=07..
TTITLE7=08..
TTITLE8=09..
EXTD=
EXTT0=
EXTT1=
EXTT2=
EXTT3=
EXTT4=
EXTT5=
EXTT6=
EXTT7=
EXTT8=
PLAYORDER=
